<svg xmlns="http://www.w3.org/2000/svg" width="222" height="16" viewBox="0 0 222 16" fill="none"><path d="M0.44 0.84H5.12C6.25333 0.84 7.32667 0.966667 8.34 1.22C9.36667 1.47333 10.26 1.88667 11.02 2.46C11.78 3.02 12.38 3.75333 12.82 4.66C13.2733 5.56667 13.5 6.66667 13.5 7.96C13.5 9.10667 13.28 10.12 12.84 11C12.4133 11.8667 11.8333 12.6 11.1 13.2C10.3667 13.7867 9.52 14.2333 8.56 14.54C7.6 14.8467 6.59333 15 5.54 15H0.44V0.84ZM3.56 12.12H5.18C5.9 12.12 6.56667 12.0467 7.18 11.9C7.80667 11.7533 8.34667 11.5133 8.8 11.18C9.25333 10.8333 9.60667 10.3867 9.86 9.84C10.1267 9.28 10.26 8.6 10.26 7.8C10.26 7.10667 10.1267 6.50667 9.86 6C9.60667 5.48 9.26 5.05333 8.82 4.72C8.38 4.38667 7.86 4.14 7.26 3.98C6.67333 3.80667 6.05333 3.72 5.4 3.72H3.56V12.12ZM15.7358 0.84H25.3558V3.72H18.8558V6.36H24.9958V9.24H18.8558V12.12H25.7158V15H15.7358V0.84ZM35.2134 4.3C34.9601 3.98 34.6134 3.74667 34.1734 3.6C33.7468 3.44 33.3401 3.36 32.9534 3.36C32.7268 3.36 32.4934 3.38667 32.2534 3.44C32.0134 3.49333 31.7868 3.58 31.5734 3.7C31.3601 3.80667 31.1868 3.95333 31.0534 4.14C30.9201 4.32667 30.8534 4.55333 30.8534 4.82C30.8534 5.24667 31.0134 5.57333 31.3334 5.8C31.6534 6.02667 32.0534 6.22 32.5334 6.38C33.0268 6.54 33.5534 6.7 34.1134 6.86C34.6734 7.02 35.1934 7.24667 35.6734 7.54C36.1668 7.83333 36.5734 8.22667 36.8934 8.72C37.2134 9.21333 37.3734 9.87333 37.3734 10.7C37.3734 11.4867 37.2268 12.1733 36.9334 12.76C36.6401 13.3467 36.2401 13.8333 35.7334 14.22C35.2401 14.6067 34.6601 14.8933 33.9934 15.08C33.3401 15.2667 32.6468 15.36 31.9134 15.36C30.9934 15.36 30.1401 15.22 29.3534 14.94C28.5668 14.66 27.8334 14.2067 27.1534 13.58L29.3734 11.14C29.6934 11.5667 30.0934 11.9 30.5734 12.14C31.0668 12.3667 31.5734 12.48 32.0934 12.48C32.3468 12.48 32.6001 12.4533 32.8534 12.4C33.1201 12.3333 33.3534 12.24 33.5534 12.12C33.7668 12 33.9334 11.8467 34.0534 11.66C34.1868 11.4733 34.2534 11.2533 34.2534 11C34.2534 10.5733 34.0868 10.24 33.7534 10C33.4334 9.74667 33.0268 9.53333 32.5334 9.36C32.0401 9.18667 31.5068 9.01333 30.9334 8.84C30.3601 8.66667 29.8268 8.43333 29.3334 8.14C28.8401 7.84667 28.4268 7.46 28.0934 6.98C27.7734 6.5 27.6134 5.86667 27.6134 5.08C27.6134 4.32 27.7601 3.65333 28.0534 3.08C28.3601 2.50667 28.7601 2.02667 29.2534 1.64C29.7601 1.25333 30.3401 0.966666 30.9934 0.779999C31.6468 0.58 32.3201 0.48 33.0134 0.48C33.8134 0.48 34.5868 0.593333 35.3334 0.819999C36.0801 1.04667 36.7534 1.42667 37.3534 1.96L35.2134 4.3ZM39.6578 0.84H42.7778V15H39.6578V0.84ZM58.4358 14C57.5158 14.48 56.5558 14.8267 55.5558 15.04C54.5558 15.2533 53.5358 15.36 52.4958 15.36C51.3891 15.36 50.3691 15.1867 49.4358 14.84C48.5024 14.4933 47.6958 14 47.0158 13.36C46.3358 12.7067 45.8024 11.92 45.4158 11C45.0424 10.08 44.8558 9.05333 44.8558 7.92C44.8558 6.78667 45.0424 5.76 45.4158 4.84C45.8024 3.92 46.3358 3.14 47.0158 2.5C47.6958 1.84667 48.5024 1.34667 49.4358 0.999999C50.3691 0.653333 51.3891 0.48 52.4958 0.48C53.6291 0.48 54.6691 0.62 55.6158 0.899999C56.5758 1.16667 57.4158 1.63333 58.1358 2.3L55.9358 4.7C55.5091 4.26 55.0291 3.92667 54.4958 3.7C53.9624 3.47333 53.2958 3.36 52.4958 3.36C51.8291 3.36 51.2224 3.47333 50.6758 3.7C50.1424 3.92667 49.6824 4.24667 49.2958 4.66C48.9091 5.06 48.6091 5.54 48.3958 6.1C48.1958 6.66 48.0958 7.26667 48.0958 7.92C48.0958 8.58667 48.1958 9.2 48.3958 9.76C48.6091 10.3067 48.9091 10.7867 49.2958 11.2C49.6824 11.6 50.1424 11.9133 50.6758 12.14C51.2224 12.3667 51.8291 12.48 52.4958 12.48C53.1758 12.48 53.7624 12.4067 54.2558 12.26C54.7491 12.1 55.1424 11.94 55.4358 11.78V9.48H52.8958V6.6H58.4358V14ZM61.1822 0.84H65.4222L71.4422 10.68H71.4822V0.84H74.6022V15H70.5222L64.3422 4.92H64.3022V15H61.1822V0.84ZM77.6108 0.84H87.2308V3.72H80.7308V6.36H86.8708V9.24H80.7308V12.12H87.5908V15H77.6108V0.84ZM90.0884 0.84H94.7684C95.9018 0.84 96.9751 0.966667 97.9884 1.22C99.0151 1.47333 99.9084 1.88667 100.668 2.46C101.428 3.02 102.028 3.75333 102.468 4.66C102.922 5.56667 103.148 6.66667 103.148 7.96C103.148 9.10667 102.928 10.12 102.488 11C102.062 11.8667 101.482 12.6 100.748 13.2C100.015 13.7867 99.1684 14.2333 98.2084 14.54C97.2484 14.8467 96.2418 15 95.1884 15H90.0884V0.84ZM93.2084 12.12H94.8284C95.5484 12.12 96.2151 12.0467 96.8284 11.9C97.4551 11.7533 97.9951 11.5133 98.4484 11.18C98.9018 10.8333 99.2551 10.3867 99.5084 9.84C99.7751 9.28 99.9084 8.6 99.9084 7.8C99.9084 7.10667 99.7751 6.50667 99.5084 6C99.2551 5.48 98.9084 5.05333 98.4684 4.72C98.0284 4.38667 97.5084 4.14 96.9084 3.98C96.3218 3.80667 95.7018 3.72 95.0484 3.72H93.2084V12.12ZM111.182 0.84H116.462C117.076 0.84 117.689 0.886666 118.302 0.979999C118.929 1.06 119.489 1.23333 119.982 1.5C120.476 1.75333 120.876 2.11333 121.182 2.58C121.489 3.04667 121.642 3.66667 121.642 4.44C121.642 5.24 121.416 5.90667 120.962 6.44C120.522 6.96 119.936 7.33333 119.202 7.56V7.6C119.669 7.66667 120.089 7.8 120.462 8C120.849 8.18667 121.176 8.43333 121.442 8.74C121.722 9.03333 121.936 9.38 122.082 9.78C122.229 10.18 122.302 10.6067 122.302 11.06C122.302 11.8067 122.142 12.4333 121.822 12.94C121.502 13.4333 121.089 13.8333 120.582 14.14C120.076 14.4467 119.502 14.6667 118.862 14.8C118.236 14.9333 117.609 15 116.982 15H111.182V0.84ZM114.302 6.5H116.562C116.802 6.5 117.036 6.47333 117.262 6.42C117.502 6.36667 117.716 6.28 117.902 6.16C118.089 6.04 118.236 5.88 118.342 5.68C118.462 5.48 118.522 5.24 118.522 4.96C118.522 4.66667 118.456 4.42667 118.322 4.24C118.202 4.04 118.042 3.88667 117.842 3.78C117.642 3.67333 117.416 3.6 117.162 3.56C116.909 3.50667 116.662 3.48 116.422 3.48H114.302V6.5ZM114.302 12.36H117.102C117.342 12.36 117.582 12.3333 117.822 12.28C118.076 12.2267 118.302 12.1333 118.502 12C118.702 11.8667 118.862 11.6933 118.982 11.48C119.116 11.2667 119.182 11.0067 119.182 10.7C119.182 10.3667 119.096 10.1 118.922 9.9C118.762 9.68667 118.556 9.52667 118.302 9.42C118.049 9.31333 117.776 9.24 117.482 9.2C117.189 9.16 116.916 9.14 116.662 9.14H114.302V12.36ZM127.631 8.96L122.311 0.84H126.191L129.191 6.14L132.371 0.84H136.071L130.751 8.96V15H127.631V8.96ZM152.298 4.52C151.991 4.14667 151.611 3.86 151.158 3.66C150.718 3.46 150.204 3.36 149.618 3.36C149.031 3.36 148.484 3.47333 147.978 3.7C147.484 3.92667 147.051 4.24667 146.678 4.66C146.318 5.06 146.031 5.54 145.818 6.1C145.618 6.66 145.518 7.26667 145.518 7.92C145.518 8.58667 145.618 9.2 145.818 9.76C146.031 10.3067 146.318 10.7867 146.678 11.2C147.038 11.6 147.458 11.9133 147.938 12.14C148.431 12.3667 148.958 12.48 149.518 12.48C150.158 12.48 150.724 12.3467 151.218 12.08C151.711 11.8133 152.118 11.44 152.438 10.96L155.038 12.9C154.438 13.74 153.678 14.36 152.758 14.76C151.838 15.16 150.891 15.36 149.918 15.36C148.811 15.36 147.791 15.1867 146.858 14.84C145.924 14.4933 145.118 14 144.438 13.36C143.758 12.7067 143.224 11.92 142.838 11C142.464 10.08 142.278 9.05333 142.278 7.92C142.278 6.78667 142.464 5.76 142.838 4.84C143.224 3.92 143.758 3.14 144.438 2.5C145.118 1.84667 145.924 1.34667 146.858 0.999999C147.791 0.653333 148.811 0.48 149.918 0.48C150.318 0.48 150.731 0.52 151.158 0.599999C151.598 0.666666 152.024 0.779999 152.438 0.94C152.864 1.1 153.271 1.31333 153.658 1.58C154.044 1.84667 154.391 2.17333 154.698 2.56L152.298 4.52ZM156.729 0.84H162.209C162.929 0.84 163.609 0.913333 164.249 1.06C164.902 1.19333 165.469 1.42667 165.949 1.76C166.442 2.08 166.829 2.52 167.109 3.08C167.402 3.62667 167.549 4.31333 167.549 5.14C167.549 6.14 167.289 6.99333 166.769 7.7C166.249 8.39333 165.489 8.83333 164.489 9.02L168.089 15H164.349L161.389 9.34H159.849V15H156.729V0.84ZM159.849 6.7H161.689C161.969 6.7 162.262 6.69333 162.569 6.68C162.889 6.65333 163.176 6.59333 163.429 6.5C163.682 6.39333 163.889 6.23333 164.049 6.02C164.222 5.80667 164.309 5.50667 164.309 5.12C164.309 4.76 164.236 4.47333 164.089 4.26C163.942 4.04667 163.756 3.88667 163.529 3.78C163.302 3.66 163.042 3.58 162.749 3.54C162.456 3.5 162.169 3.48 161.889 3.48H159.849V6.7ZM168.938 7.92C168.938 6.78667 169.124 5.76 169.498 4.84C169.884 3.92 170.418 3.14 171.098 2.5C171.778 1.84667 172.584 1.34667 173.518 0.999999C174.451 0.653333 175.471 0.48 176.578 0.48C177.684 0.48 178.704 0.653333 179.638 0.999999C180.571 1.34667 181.378 1.84667 182.058 2.5C182.738 3.14 183.264 3.92 183.638 4.84C184.024 5.76 184.218 6.78667 184.218 7.92C184.218 9.05333 184.024 10.08 183.638 11C183.264 11.92 182.738 12.7067 182.058 13.36C181.378 14 180.571 14.4933 179.638 14.84C178.704 15.1867 177.684 15.36 176.578 15.36C175.471 15.36 174.451 15.1867 173.518 14.84C172.584 14.4933 171.778 14 171.098 13.36C170.418 12.7067 169.884 11.92 169.498 11C169.124 10.08 168.938 9.05333 168.938 7.92ZM172.178 7.92C172.178 8.58667 172.278 9.2 172.478 9.76C172.691 10.3067 172.991 10.7867 173.378 11.2C173.764 11.6 174.224 11.9133 174.758 12.14C175.304 12.3667 175.911 12.48 176.578 12.48C177.244 12.48 177.844 12.3667 178.378 12.14C178.924 11.9133 179.391 11.6 179.778 11.2C180.164 10.7867 180.458 10.3067 180.658 9.76C180.871 9.2 180.978 8.58667 180.978 7.92C180.978 7.26667 180.871 6.66 180.658 6.1C180.458 5.54 180.164 5.06 179.778 4.66C179.391 4.24667 178.924 3.92667 178.378 3.7C177.844 3.47333 177.244 3.36 176.578 3.36C175.911 3.36 175.304 3.47333 174.758 3.7C174.224 3.92667 173.764 4.24667 173.378 4.66C172.991 5.06 172.691 5.54 172.478 6.1C172.278 6.66 172.178 7.26667 172.178 7.92ZM186.298 0.84H189.418V15H186.298V0.84ZM192.256 0.84H196.496L202.516 10.68H202.556V0.84H205.676V15H201.596L195.416 4.92H195.376V15H192.256V0.84ZM221.385 14C220.465 14.48 219.505 14.8267 218.505 15.04C217.505 15.2533 216.485 15.36 215.445 15.36C214.338 15.36 213.318 15.1867 212.385 14.84C211.452 14.4933 210.645 14 209.965 13.36C209.285 12.7067 208.752 11.92 208.365 11C207.992 10.08 207.805 9.05333 207.805 7.92C207.805 6.78667 207.992 5.76 208.365 4.84C208.752 3.92 209.285 3.14 209.965 2.5C210.645 1.84667 211.452 1.34667 212.385 0.999999C213.318 0.653333 214.338 0.48 215.445 0.48C216.578 0.48 217.618 0.62 218.565 0.899999C219.525 1.16667 220.365 1.63333 221.085 2.3L218.885 4.7C218.458 4.26 217.978 3.92667 217.445 3.7C216.912 3.47333 216.245 3.36 215.445 3.36C214.778 3.36 214.172 3.47333 213.625 3.7C213.092 3.92667 212.632 4.24667 212.245 4.66C211.858 5.06 211.558 5.54 211.345 6.1C211.145 6.66 211.045 7.26667 211.045 7.92C211.045 8.58667 211.145 9.2 211.345 9.76C211.558 10.3067 211.858 10.7867 212.245 11.2C212.632 11.6 213.092 11.9133 213.625 12.14C214.172 12.3667 214.778 12.48 215.445 12.48C216.125 12.48 216.712 12.4067 217.205 12.26C217.698 12.1 218.092 11.94 218.385 11.78V9.48H215.845V6.6H221.385V14Z" fill="white"></path><path d="M-1 17H222.685V18H-1V17Z" fill="white"></path></svg>